# xmcd
#
# Track frame offsets: 
#        150
#        25277
#        52110
#        76310
#        105177
#        129682
#        158600
#        189220
#        215860
#        238862
#
# Disc length: 3585 seconds
#
# Revision: 0
# Processed by: cddbd v1.5PL3 Copyright (c) Steve Scherf et al.
# Submitted via: ExactAudioCopy v0.95a4
#
DISCID=810dff0a
DTITLE=Jonny L - Sawtooth [AVCD-11630] (Disc1)
DYEAR=1998
DGENRE=Electronic
TTITLE0=Treading
TTITLE1=Piper
TTITLE2=S4
TTITLE3=Wish U Had Something
TTITLE4=Detroit
TTITLE5=Two Of Us
TTITLE6=Tychonic Cycle
TTITLE7=Moving Thru Air
TTITLE8=I Let U
TTITLE9=Obedience
EXTD=
EXTT0=
EXTT1=
EXTT2=
EXTT3=
EXTT4=
EXTT5=
EXTT6=
EXTT7=
EXTT8=
EXTT9=
PLAYORDER=
